<svg width="200" height="200" viewBox="0 0 200 200" fill="none" xmlns="http://www.w3.org/2000/svg">
<rect width="200" height="200" fill="#35AD60"/>
<path d="M100.016 143.041V175.979C88.6043 174.908 79.7617 167.984 79.7617 159.51C79.7617 151.036 88.6043 144.113 100.016 143.041Z" fill="#D6D6D6"/>
<path d="M100.016 143.041V153.682V160.871C94.1084 161.252 87.3605 160.966 79.791 159.953C79.7858 159.805 79.7617 159.658 79.7617 159.51C79.7617 151.036 88.6043 144.113 100.016 143.041Z" fill="#BFBFBF"/>
<path d="M45.9002 104.94C45.3817 102.037 45.0527 99.0742 45.0527 96.0302C45.0527 66.9544 69.7235 43.3844 100.157 43.3844V148.676C100.11 148.676 100.064 148.669 100.016 148.669V155.86C93.3228 156.29 85.6206 155.927 76.7797 154.542C56.712 151.398 40 140.142 40 122.377C40 115.945 42.1809 109.967 45.9002 104.94Z" fill="#E0E0E0"/>
<path d="M58.1849 61.9656C53.8523 59.3574 50.71 53.1798 50.71 48.5354C50.71 40.5231 58.55 31 68.7622 31C78.716 31 86.7714 37.1828 87.1762 44.9143C75.6858 47.5707 65.6011 53.6329 58.1849 61.9656Z" fill="#363636"/>
<path d="M61.9748 58.0912C60.147 56.0188 58.9549 53.085 58.9549 50.7318C58.9549 45.2949 64.2746 38.8348 71.2033 38.8348C76.9124 38.8348 81.6653 41.8478 83.1744 45.9444C75.1414 48.4285 67.9198 52.6285 61.9748 58.0912Z" fill="#262626"/>
<path d="M62.2004 95.8218C51.8573 110.475 55.6265 122.343 62.302 127.127C68.9775 131.911 79.3654 126.334 87.1779 115.431C94.9903 104.528 98.403 91.5133 90.594 87.6459C81.772 83.2771 69.3531 85.6872 62.2004 95.8218Z" fill="#3D3C36"/>
<path d="M87.1762 106.272C87.1762 111.211 82.8867 115.214 77.5963 115.214C72.3059 115.214 68.0163 111.211 68.0163 106.272C68.0163 101.333 72.3059 97.3292 77.5963 97.3292C82.8884 97.3292 87.1762 101.333 87.1762 106.272Z" fill="#231F20"/>
<path d="M84.1597 102.933C84.1597 104.242 83.183 105.304 81.9771 105.304C80.7712 105.304 79.7944 104.242 79.7944 102.933C79.7944 101.624 80.7729 100.563 81.9771 100.563C83.183 100.563 84.1597 101.624 84.1597 102.933Z" fill="white"/>
<path d="M40 122.377C40 115.945 42.1827 109.967 45.902 104.942C45.902 104.942 41.3919 130.359 78.1768 154.728C77.7031 154.659 77.262 154.618 76.7814 154.544C56.7119 151.396 40 140.14 40 122.377Z" fill="#CCCCCC"/>
<path d="M63.1359 94.6108C60.6862 104.628 59.4717 118.081 66.03 128.674C64.7001 128.438 63.4426 127.943 62.3004 127.125C55.6267 122.341 51.8556 110.473 62.1988 95.8201C62.4985 95.398 62.8207 95.0087 63.1359 94.6108Z" fill="#2E2E2E"/>
<path d="M99.9828 143.041V175.979C111.394 174.908 120.237 167.984 120.237 159.51C120.237 151.036 111.396 144.113 99.9828 143.041Z" fill="#E8E8E8"/>
<path d="M99.9828 143.041V153.682V160.871C105.892 161.252 112.638 160.966 120.207 159.953C120.212 159.805 120.237 159.658 120.237 159.51C120.237 151.036 111.396 144.113 99.9828 143.041Z" fill="#D9D9D9"/>
<path d="M154.098 104.94C154.617 102.037 154.946 99.0742 154.946 96.0302C154.946 66.9544 130.275 43.3844 99.8415 43.3844V148.676C99.8881 148.676 99.9346 148.669 99.9811 148.669V155.86C106.674 156.29 114.376 155.927 123.217 154.542C143.285 151.398 159.997 140.142 159.997 122.377C160 115.945 157.817 109.967 154.098 104.94Z" fill="#F1EDF1"/>
<path d="M141.813 61.9656C146.146 59.3574 149.288 53.1798 149.288 48.5354C149.288 40.5231 141.448 31 131.236 31C121.284 31 113.227 37.1828 112.822 44.9143C124.313 47.5707 134.397 53.6329 141.813 61.9656Z" fill="#3D3C36"/>
<path d="M113.673 41.1519C113.194 42.3492 112.891 43.6068 112.822 44.9143C124.314 47.5707 134.397 53.6329 141.813 61.9656C143.204 61.1284 144.451 59.9018 145.531 58.4978C137.457 49.5966 126.316 43.3174 113.673 41.1519Z" fill="#2E2E2E"/>
<path d="M138.025 58.0912C139.853 56.0188 141.045 53.085 141.045 50.7318C141.045 45.2949 135.725 38.8348 128.797 38.8348C123.088 38.8348 118.335 41.8478 116.826 45.9444C124.859 48.4285 132.079 52.6285 138.025 58.0912Z" fill="#2E2E2E"/>
<path d="M140.502 53.6207C134.463 48.4836 127.231 44.6059 119.255 42.3956C118.168 43.4275 117.311 44.6196 116.824 45.9427C124.859 48.4268 132.078 52.6268 138.025 58.0912C139.15 56.8164 139.989 55.2143 140.502 53.6207Z" fill="#242424"/>
<path d="M86.3562 41.1829C86.8351 42.3802 87.3209 43.6068 87.3898 44.9143C75.8976 47.5707 65.8146 53.6329 58.3984 61.9657C57.0082 61.1284 55.761 59.9019 54.6808 58.4979C62.7551 49.5966 73.7132 43.3484 86.3562 41.1829Z" fill="#2B2B2B"/>
<path d="M59.7094 53.6207C65.7492 48.4836 72.9794 44.6059 80.9573 42.3956C82.0443 43.4275 82.9005 44.6196 83.388 45.9427C75.3533 48.4268 68.1335 52.6268 62.1867 58.0912C61.0618 56.8164 60.2228 55.2143 59.7094 53.6207Z" fill="#1C1C1C"/>
<path d="M137.8 95.8218C148.143 110.475 144.373 122.343 137.698 127.127C131.023 131.911 120.635 126.334 112.822 115.431C105.01 104.528 101.597 91.5133 109.406 87.6459C118.226 83.2771 130.645 85.6872 137.8 95.8218Z" fill="#3D3C36"/>
<path d="M100.155 130.701C94.2049 130.701 89.3813 133.051 89.3813 135.951C89.3813 138.85 94.2049 141.2 100.155 141.2C106.105 141.2 110.929 138.85 110.929 135.951C110.931 133.053 106.107 130.701 100.155 130.701Z" fill="#C9C9C9"/>
<path d="M101.99 136.548H97.5692V148.669H101.99V136.548Z" fill="#303030"/>
<path d="M131.98 106.272C131.98 111.211 127.691 115.214 122.4 115.214C117.11 115.214 112.82 111.211 112.82 106.272C112.82 101.333 117.11 97.3292 122.4 97.3292C127.691 97.3292 131.98 101.333 131.98 106.272Z" fill="#231F20"/>
<path d="M128.964 102.933C128.964 104.242 127.987 105.304 126.781 105.304C125.575 105.304 124.599 104.242 124.599 102.933C124.599 101.624 125.575 100.563 126.781 100.563C127.987 100.563 128.964 101.624 128.964 102.933Z" fill="white"/>
<path d="M97.571 141.629C98.4031 141.728 99.261 141.797 100.157 141.797C100.786 141.797 101.392 141.758 101.991 141.708V136.548H97.5727L97.571 141.629Z" fill="#242424"/>
<path d="M110.931 134.1C110.931 137 106.107 139.349 100.157 139.349C94.2066 139.349 89.383 137 89.383 134.1C89.383 131.201 94.2066 128.851 100.157 128.851C106.107 128.85 110.931 131.201 110.931 134.1Z" fill="#3D3C36"/>
<path d="M160 122.377C160 115.945 157.817 109.967 154.098 104.942C154.098 104.942 158.608 130.359 121.823 154.728C122.297 154.659 122.738 154.618 123.219 154.544C143.288 151.396 160 140.14 160 122.377Z" fill="#F7F7F7"/>
<path d="M109.437 131.475C108.974 134.233 106.899 137.74 99.8208 139.332C99.9345 139.334 100.041 139.349 100.157 139.349C106.107 139.349 110.931 137 110.931 134.1C110.931 133.139 110.362 132.25 109.437 131.475Z" fill="#545454"/>
<path d="M90.8748 131.475C91.3383 134.233 93.4124 137.74 100.491 139.332C100.377 139.334 100.271 139.349 100.155 139.349C94.2049 139.349 89.3813 137 89.3813 134.1C89.3813 133.139 89.9498 132.25 90.8748 131.475Z" fill="#2E2E2E"/>
<path d="M136.862 94.6108C139.312 104.628 140.527 118.081 133.967 128.674C135.297 128.438 136.554 127.943 137.696 127.125C144.372 122.341 148.141 110.473 137.798 95.8201C137.5 95.398 137.179 95.0087 136.862 94.6108Z" fill="#4D4D4D"/>
<path d="M106.26 131.475C106.26 132.142 105.626 132.683 104.844 132.683C104.062 132.683 103.428 132.142 103.428 131.475C103.428 130.808 104.062 130.267 104.844 130.267C105.626 130.269 106.26 130.81 106.26 131.475Z" fill="white"/>
<path d="M98.7148 148.624C99.1696 150.042 100.098 151.388 101.32 152.244C103.94 154.082 107.068 153.042 109.518 151.439C111.06 150.433 109.625 147.949 108.071 148.964C106.501 149.989 104.339 151.138 102.677 149.674C102.276 149.32 101.991 148.888 101.735 148.425C101.488 147.98 101.592 148.208 101.48 147.86C100.916 146.109 98.1481 146.86 98.7148 148.624Z" fill="#C9C9C9"/>
<path d="M100.927 148.624C100.472 150.042 99.5434 151.388 98.322 152.244C95.7018 154.082 92.5734 153.042 90.1237 151.439C88.5819 150.433 90.0186 147.949 91.5708 148.964C93.1402 149.989 95.3021 151.138 96.9646 149.674C97.3659 149.32 97.6502 148.888 97.9069 148.425C98.1532 147.98 98.0499 148.208 98.1618 147.86C98.7252 146.109 101.494 146.86 100.927 148.624Z" fill="#C9C9C9"/>
<path d="M98.7148 147.83C99.1696 149.248 100.098 150.594 101.32 151.45C103.94 153.288 107.068 152.246 109.518 150.645C111.06 149.639 109.625 147.155 108.071 148.17C106.501 149.195 104.339 150.344 102.677 148.879C102.276 148.526 101.991 148.094 101.735 147.63C101.488 147.186 101.592 147.413 101.48 147.065C100.916 145.313 98.1481 146.065 98.7148 147.83Z" fill="#242424"/>
<path d="M100.927 147.83C100.472 149.248 99.5434 150.594 98.322 151.45C95.7018 153.288 92.5734 152.246 90.1237 150.645C88.5819 149.639 90.0186 147.155 91.5708 148.17C93.1402 149.195 95.3021 150.344 96.9646 148.879C97.3659 148.526 97.6502 148.094 97.9069 147.63C98.1532 147.186 98.0499 147.413 98.1618 147.065C98.7252 145.313 101.494 146.065 100.927 147.83Z" fill="#242424"/>
</svg>
