<svg width="200" height="202" viewBox="0 0 200 202" fill="none" xmlns="http://www.w3.org/2000/svg">
<rect width="200" height="200" fill="#D9D9D9"/>
<path d="M100.351 105.245H99.6481V104.542H100.351V105.245Z" fill="#2A232B"/>
<path d="M167.095 175.055C165.55 171.718 161.332 166.772 156.645 165.406C150.852 163.716 137.774 161.674 132.925 160.538C129.038 159.627 121.209 152.596 118.465 150.236C117.973 149.815 117.57 148.943 117.56 148.296C117.462 140.656 120.51 120.363 120.51 120.363H99.9997H79.4902C79.4902 120.363 82.5377 140.656 82.4386 148.296C82.4308 148.943 82.0258 149.815 81.535 150.236C78.7912 152.596 70.9621 159.627 67.0749 160.538C62.2251 161.674 49.1475 163.786 43.3547 165.476C38.6666 166.841 34.4497 171.717 32.9055 175.054C30.2981 180.685 29.6822 190.876 29.6822 199.665H99.9997H170.317C170.317 190.876 169.701 180.686 167.095 175.055Z" fill="#E9B995"/>
<path d="M141.597 164.001C158.713 166.492 165.917 170.124 168.172 199.667H170.317C170.317 190.877 169.7 180.687 167.094 175.056C165.55 171.719 161.332 166.773 156.645 165.407C150.852 163.717 137.774 161.674 132.925 160.539C129.038 159.627 120.098 152.052 117.706 149.042C120.069 152.35 126.701 160.015 132.511 162.022C135.291 162.983 137.605 163.42 141.597 164.001ZM67.489 162.022C73.2993 160.016 79.9303 152.35 82.2937 149.042C79.9029 152.051 70.9627 159.627 67.0748 160.539C62.2257 161.674 49.1481 163.787 43.3546 165.476C38.668 166.842 34.4496 171.718 32.9055 175.055C30.2995 180.686 29.6828 190.877 29.6828 199.666H31.8275C34.0692 170.313 41.3028 166.488 58.4033 164C62.3938 163.42 64.7094 162.983 67.489 162.022Z" fill="#F8D3B8"/>
<path d="M96.938 173.538C96.938 173.538 93.3701 172.406 91.9574 171.865C84.61 169.046 60.74 167.219 60.74 167.219C60.74 167.219 85.8813 168.217 91.4293 169.173C91.1073 165.821 89.3079 155.107 89.3079 155.107C89.3079 155.107 92.9285 166.931 93.8145 169.914C94.2885 171.508 96.938 173.538 96.938 173.538ZM104.532 172.594C104.469 172.645 104.397 172.712 104.319 172.782C104.399 172.723 104.47 172.66 104.532 172.594ZM96.938 173.538C96.938 173.538 98.9723 175.642 99.9947 175.668C101.338 175.704 103.389 173.63 104.319 172.782C103.43 173.455 101.395 173.761 100.586 173.792C99.6509 173.828 96.938 173.538 96.938 173.538ZM111.717 168.251C110.631 168.425 108.633 168.805 108.633 168.805L110.241 158.335C109.787 160.494 107.095 169.734 104.532 172.594C105.875 171.458 108.862 170.913 110.385 170.693C117.583 169.649 117.58 169.65 139.259 167.219C139.259 167.219 118.817 167.11 111.717 168.251Z" fill="#DAA075"/>
<path d="M167.095 175.055C165.55 171.718 161.332 166.772 156.645 165.406C150.852 163.716 137.774 161.674 132.925 160.538C129.038 159.627 121.209 152.596 118.465 150.236C117.973 149.815 117.57 148.943 117.56 148.296C117.462 140.656 120.51 120.363 120.51 120.363H99.9997H79.4902C79.4902 120.363 82.5377 140.656 82.4386 148.296C82.4308 148.943 82.0258 149.815 81.535 150.236C78.7912 152.596 70.9621 159.627 67.0749 160.538C62.2251 161.674 49.1475 163.786 43.3547 165.476C38.6666 166.841 34.4497 171.717 32.9055 175.054C30.2981 180.685 29.6822 190.876 29.6822 199.665H99.9997H170.317C170.317 190.876 169.701 180.686 167.095 175.055Z" stroke="#BB7440" stroke-width="1.5"/>
<path d="M100.001 154.725C108.011 154.725 111.694 150.253 117.031 147.948C117.025 142.37 118.464 131.118 119.338 124.808C107.992 123.506 92.0052 123.506 80.6595 124.809C81.5336 131.118 82.973 142.369 82.9666 147.945C88.3058 150.25 91.9891 154.725 100.001 154.725Z" fill="url(#paint0_linear_7_1535)"/>
<path d="M59.7569 200.355L60.6872 157.565C60.6872 157.565 67.8554 155.816 72.3846 153.126C84.6873 168.563 121.221 165.314 127.468 152.69C128.516 153.059 129.382 153.532 130.465 153.894C133.981 156.275 136.944 157.054 136.944 157.054L137.601 200.43C127.556 200.562 59.7569 200.355 59.7569 200.355Z" fill="#F5F4F5"/>
<path d="M137.981 159.534C135.002 159.028 132.629 158.341 131.335 157.042C127.578 164.091 112.516 168.558 107.529 169.213C121.982 164.8 128.053 161.61 130.451 154.036C131.85 155.712 135.037 156.532 139.109 157.227L137.981 159.534ZM66.7184 157.196C67.7408 156.977 68.2513 156.329 69.266 156.076L68.1916 154.763C66.0019 156.334 61.8834 157.087 57.0111 157.874L57.1433 160.503C59.925 159.947 62.64 159.245 65.1799 158.166C70.4417 164.133 78.6583 167.068 87.0205 168.283C76.5305 165.762 70.5156 161.507 66.7184 157.196Z" fill="white"/>
<path d="M126.623 154.155C122.453 162.143 90.9434 171.449 73.1749 154.764C72.0702 155.196 68.7653 156.23 68.7653 156.23C81.7079 172.459 119.637 172.562 129.732 156.151C129.688 156.134 127.649 154.634 126.623 154.155Z" fill="#DFDDE2"/>
<path d="M127.429 152.598C120.336 165.659 83.4258 167.508 72.4134 153.037C68.3912 154.132 64.5245 156.466 60.631 157.05L59.7569 200.355L137.601 200.43L136.999 156.562C134.63 156.065 132.428 154.637 130.492 153.824C129.422 153.374 128.513 152.97 127.429 152.598ZM72.1469 153.474C81.9231 169.708 120.537 166.451 127.992 153.544C128.897 153.895 129.128 154.033 130.176 154.376C122.454 169.288 84.2549 174.041 68.631 155.182C68.7407 155.154 71.045 153.855 72.1469 153.474ZM67.8554 155.816C80.4865 174.834 122.183 171.888 130.848 154.911C132.093 155.889 134.033 157.013 136.428 157.538L137.596 199.081L59.9813 199.093L61.3201 158.098C63.2777 157.114 66.4209 156.389 67.8554 155.816Z" fill="#B8B6C9"/>
<path d="M26.4975 200.22C24.6875 190.48 24.8858 166.755 32.8352 166.805C42.0721 163.07 53.4164 158.786 62.9325 156.039C67.79 150.943 72.3804 146.098 81.3473 141.051C81.6208 142.879 82.665 147.057 81.355 149.33C80.4022 150.983 77.2885 153.25 74.6369 155.214C73.2101 157.126 71.8755 158.993 69.9966 161.605C73.6306 177.286 76.7478 185.358 77.0966 198.96C77.0966 198.96 76.0756 199.444 122.431 199.239C123.989 183.531 125.942 175.64 129.729 161.198C129.729 161.198 126.7 157.673 124.661 154.961C123.217 153.557 118.783 149.665 118.445 148.878C117.619 146.951 118.06 144.527 118.523 140.885C126.112 144.312 130.477 149.338 136.863 155.865C142.298 157.355 158.563 162.873 166.709 166.564C169.497 166.487 171.071 167.97 172.245 170.408C176.045 178.28 175.146 189.602 173.778 200.496C160.353 200.518 64.7615 202.052 26.4975 200.22Z" fill="#638E2F"/>
<path d="M81.6292 142.922C81.7418 143.674 81.843 144.388 81.9183 145.06C81.765 145.247 69.8152 161.482 69.728 161.603C72.6645 154.923 76.8652 148.002 81.6292 142.922ZM118.32 142.922C118.208 143.674 118.19 144.388 118.115 145.06C118.268 145.247 130.02 160.86 130.107 160.982C126.995 154.759 123.084 148.002 118.32 142.922ZM145.712 164.772C142.702 169.153 142.059 170.666 138.765 175.008C139.518 175.008 140.733 175.125 141.486 175.125C144.063 170.705 144.068 168.456 145.712 164.772ZM148.796 196.573C151.463 190.315 153.672 184.822 156.347 178.555L155.47 177.138C153.242 183.576 150.877 190.118 148.796 196.573ZM58.5461 175.125C59.2992 175.125 60.5143 175.008 61.2681 175.008C57.9737 170.666 57.331 170.394 54.3221 166.013C55.9648 169.697 55.9697 170.705 58.5461 175.125ZM44.5621 177.138L43.6852 178.555C46.3615 184.822 47.0358 190.315 49.7037 196.573C47.6216 190.118 46.7904 183.576 44.5621 177.138Z" fill="#537F1D"/>
<path d="M75.8371 153.612C76.6676 152.454 79.5197 148.498 81.8851 144.779C82.5799 148.616 81.3043 150.893 75.8371 153.612ZM118.099 144.525C119.895 147.616 122.01 150.693 124.192 153.527C118.282 150.836 117.885 148.085 118.099 144.525Z" fill="#446F0F"/>
<path d="M118.506 141.008C118.511 140.965 118.518 140.925 118.522 140.886C131.245 147.917 138.616 158.479 147.174 166.353C146.859 166.86 146.311 167.191 145.988 167.692C137.026 160.873 132.767 150.562 118.506 141.008ZM80.1251 141.474C69.5536 147.249 54.6406 164.93 53.1808 166.275C53.4959 166.784 53.6667 166.68 53.9895 167.18C62.9522 160.362 65.3985 153.612 80.1251 141.474ZM166.709 166.565C166.006 166.003 149.379 159.506 136.761 156.039C160.457 167.5 168.817 169.079 172.954 173.141C172.685 172.439 172.136 166.414 166.709 166.565ZM63.0534 155.913C53.5437 158.665 41.3682 163.013 32.8345 166.805C29.0626 166.88 26.3596 172.382 25.7809 178.115C31.028 166.293 28.4354 174.241 63.0534 155.913Z" fill="#759D44"/>
<path d="M174.958 182.287C174.719 176.215 172.81 166.041 166.737 166.493C166.235 166.064 152.096 159.625 137.004 155.516C131.833 150.274 125.391 143.141 118.46 140.779C117.96 145.299 117.422 148.249 118.612 149.72C120.188 151.435 122.079 153.15 123.934 154.306C127.179 158.62 129.657 161.181 129.657 161.181C125.839 175.739 123.458 183.201 121.941 198.933H78.0592C76.5424 183.201 74.1615 175.74 70.3432 161.181C70.3432 161.181 72.8198 158.62 76.0664 154.306C77.922 153.15 79.8122 151.435 81.388 149.72C82.5778 148.249 82.0398 145.299 81.5399 140.779C74.6094 143.141 68.1662 150.274 62.9965 155.516C47.9042 159.626 33.7648 166.064 33.2627 166.493C27.1894 166.041 25.2802 176.215 25.0419 182.287C24.7529 189.661 26.0509 199.822 26.1564 200.525H173.844C173.949 199.822 175.247 189.661 174.958 182.287ZM81.0027 149.33C79.4149 150.9 78.4304 151.567 76.451 153.044C79.8466 148.635 79.5035 149.224 81.8711 145.148C81.9773 146.901 81.3184 149.019 81.0027 149.33ZM27.4517 199.139C26.6908 190.107 25.4012 181.974 27.754 173.127C28.6548 169.733 29.5007 167.435 32.9962 167.144C33.7465 171.038 38.7144 187.342 43.0502 198.458C38.6722 181.447 39.3156 185.231 37.2708 178.451C36.5929 176.177 35.9671 173.891 35.176 171.65C34.6254 170.093 34.0158 168.565 33.5854 166.972L62.0169 156.519C61.8207 156.718 52.9495 165.966 52.7357 166.226C54.0345 168.35 58.2317 171.304 60.3617 174.494C51.617 175.319 47.3473 176.725 44.1886 177.194C44.4214 177.84 50.5601 195.022 51.2035 196.641C50.1635 191.074 47.817 182.369 45.1302 177.507C46.1217 177.381 57.8415 175.755 61.5796 175.062C60.5417 173.055 55.9239 169.129 53.4516 166.189C67.9693 153.418 71.3277 146.92 81.2924 141.258C81.3978 142.319 81.6039 143.376 81.6791 144.436C70.5725 160.984 69.2688 161.008 69.2688 161.008C72.4928 173.531 76.6746 186.198 76.6746 199.031L27.4517 199.139ZM118.997 149.33C118.682 149.019 118.022 146.901 118.128 145.148C120.496 149.225 120.153 148.635 123.548 153.044C121.569 151.567 120.584 150.901 118.997 149.33ZM172.548 199.139L123.325 199.031C123.325 186.198 127.507 173.531 130.731 161.008C130.731 161.008 129.428 160.984 118.321 144.436C118.395 143.376 118.601 142.319 118.708 141.258C128.672 146.92 132.03 153.418 146.548 166.189C144.076 169.13 139.458 173.056 138.42 175.062C142.158 175.754 153.878 177.381 154.87 177.507C152.184 182.369 149.837 191.074 148.796 196.641C149.44 195.021 155.579 177.84 155.811 177.194C152.653 176.725 148.383 175.319 139.638 174.494C141.768 171.304 145.965 168.351 147.264 166.226C147.05 165.966 138.179 156.718 137.983 156.519L166.415 166.972C165.985 168.566 165.375 170.093 164.824 171.65C164.033 173.891 163.407 176.177 162.729 178.451C160.684 185.232 161.328 181.447 156.95 198.458C161.286 187.341 166.253 171.038 167.004 167.144C170.499 167.435 171.345 169.733 172.246 173.127C174.598 181.974 173.308 190.108 172.548 199.139Z" fill="#366003"/>
<path d="M61.7968 93.8849C60.7526 92.1537 57.3478 87.4164 54.7433 88.0809C52.6253 88.6238 52.6527 91.5764 52.4889 93.3231C52.2498 95.8855 52.1626 100.349 52.8581 102.161C53.5268 103.9 55.6426 107.26 56.9562 108.542C58.5728 110.114 61.1541 115.122 61.472 115.642C61.9719 116.463 62.9746 117.639 64.5132 117.546C66.6726 117.416 68.5382 115.375 68.7076 114.392C69.6225 109.055 64.5146 98.3895 61.7968 93.8849Z" fill="#E9B995" stroke="#BB7440" stroke-width="1.5"/>
<path d="M60.7625 104.43C60.6619 104.034 60.7674 103.366 60.8708 102.722C60.9643 102.135 61.0522 101.58 60.9987 101.188C60.7955 99.7182 59.6522 96.9266 58.9061 95.4134C58.0461 93.6723 56.6566 91.4791 54.9128 90.9138C54.1927 90.6796 53.7181 90.9595 53.4438 91.2429C53.2413 91.451 53.1956 91.6964 53.2617 91.726C53.3285 91.7548 53.4776 91.5516 53.6956 91.361C53.8742 91.2049 53.3383 91.3329 53.6956 91.361C53.5514 92.0923 53.0873 95.7924 53.4073 98.4933C53.659 100.618 54.1456 102.205 54.2954 102.443C54.3172 102.693 54.3537 102.939 54.4079 103.176C55.1125 106.277 59.6943 110.333 60.7604 111.488C60.9572 111.701 61.164 111.828 61.2146 111.776C61.2652 111.724 61.1436 111.513 60.9481 111.299C59.8947 110.151 55.3431 106.109 54.6624 103.117C53.9403 99.9433 57.4132 95.2369 57.9666 94.2412C58.2486 94.7088 58.4884 95.1574 58.6726 95.5315C58.8182 95.8248 58.9778 96.1686 59.1438 96.5406C58.8182 97.0595 55.5449 100.849 56.3775 103.882C56.6855 105.001 59.065 106.443 59.9855 106.838C60.4917 107.056 60.6816 107.381 60.9024 107.756C61.1584 108.195 60.9256 109.324 61.7673 109.682C61.9389 109.755 62.0936 109.785 62.2307 109.785C62.4684 109.785 62.6484 109.693 62.7813 109.585C62.7953 109.776 62.7946 110.02 62.7876 110.247C62.7792 110.541 62.8207 110.675 62.8917 110.681C62.9641 110.687 63.0393 110.558 63.0485 110.268C63.0604 109.909 63.0583 109.466 62.9943 109.253C62.8052 108.627 62.2293 107.921 61.6182 107.173C61.0177 106.438 60.9186 105.043 60.7625 104.43ZM54.2715 101.682C52.6204 96.8134 55.1736 92.3792 55.5442 91.7112C56.2558 91.9918 57.3457 93.2533 57.8091 93.986C57.4716 94.5717 54.3404 98.4068 54.2715 101.682ZM61.8679 109.439C61.1056 109.114 61.3714 108.044 61.1253 107.622C60.9017 107.241 60.6711 106.847 60.0853 106.595C59.9587 106.54 59.8188 106.457 59.6754 106.362C57.7894 102.09 59.8814 100.223 60.406 99.8413C60.567 100.363 60.6865 100.842 60.7407 101.227C60.7885 101.578 60.6992 102.139 60.6134 102.681C60.5058 103.352 60.3954 104.048 60.51 104.498C60.6816 105.168 60.799 106.586 61.4178 107.344C61.967 108.016 62.531 108.71 62.7236 109.275C62.6406 109.388 62.3798 109.658 61.8679 109.439Z" fill="#BB7440"/>
<path d="M138.018 93.8849C139.062 92.1537 142.467 87.4164 145.071 88.0809C147.189 88.6238 147.162 91.5764 147.326 93.3231C147.565 95.8855 147.652 100.349 146.957 102.161C146.288 103.9 144.172 107.26 142.859 108.542C141.242 110.114 138.66 115.122 138.343 115.642C137.843 116.463 136.84 117.639 135.301 117.546C133.142 117.416 131.277 115.375 131.107 114.392C130.193 109.055 135.301 98.3895 138.018 93.8849Z" fill="#E9B995" stroke="#BB7440" stroke-width="1.5"/>
<path d="M138.198 107.174C137.586 107.922 137.011 108.628 136.821 109.253C136.757 109.467 136.755 109.911 136.767 110.269C136.776 110.559 136.852 110.688 136.925 110.682C136.996 110.676 137.037 110.542 137.029 110.248C137.022 110.021 137.02 109.777 137.034 109.586C137.167 109.694 137.347 109.786 137.585 109.786C137.722 109.786 137.878 109.756 138.049 109.683C138.889 109.324 138.657 108.195 138.913 107.757C139.134 107.382 139.324 107.056 139.831 106.839C140.751 106.444 143.131 105.003 143.439 103.883C144.272 100.85 140.998 97.0596 140.673 96.5414C140.837 96.1694 140.998 95.8256 141.142 95.5323C141.328 95.1582 141.567 94.7089 141.85 94.242C142.403 95.2377 145.875 99.9434 145.154 103.118C144.473 106.109 139.922 110.152 138.868 111.3C138.672 111.514 138.55 111.724 138.6 111.776C138.652 111.828 138.859 111.702 139.055 111.489C140.121 110.333 144.702 106.278 145.406 103.177C145.461 102.94 145.499 102.694 145.52 102.444C145.669 102.207 146.156 100.62 146.408 98.4941C146.728 95.7932 146.264 92.0931 146.119 91.3618C146.477 91.3337 145.941 91.2057 146.119 91.3618C146.338 91.5524 146.487 91.7556 146.553 91.7268C146.619 91.6972 146.574 91.4525 146.372 91.2437C146.097 90.9603 145.622 90.6804 144.902 90.9146C143.158 91.4799 141.768 93.6731 140.908 95.4142C140.162 96.9274 139.02 99.719 138.816 101.189C138.763 101.581 138.851 102.136 138.944 102.723C139.047 103.367 139.153 104.035 139.053 104.431C138.896 105.043 138.798 106.439 138.198 107.174ZM142.006 93.9861C142.47 93.2533 143.559 91.9926 144.271 91.7113C144.641 92.3793 147.195 96.8135 145.544 101.682C145.475 98.4069 142.344 94.5718 142.006 93.9861ZM137.092 109.274C137.284 108.708 137.849 108.015 138.398 107.343C139.016 106.585 139.134 105.167 139.306 104.496C139.42 104.046 139.31 103.351 139.203 102.679C139.117 102.138 139.027 101.577 139.075 101.225C139.129 100.841 139.248 100.362 139.409 99.84C139.934 100.222 142.026 102.089 140.14 106.361C139.997 106.456 139.857 106.539 139.729 106.594C139.144 106.846 138.913 107.239 138.689 107.621C138.443 108.043 138.709 109.113 137.947 109.438C137.435 109.658 137.174 109.388 137.092 109.274Z" fill="#BB7440"/>
<path d="M100.001 35.1859C76.3617 35.2232 57.1636 54.6421 57.2002 78.5669C57.2065 82.3662 57.6952 86.0508 58.608 89.5603C58.6164 89.5983 64.3184 114.74 66.9202 122.977C68.8715 129.155 76.9672 138.439 82.6699 140.782C88.173 143.045 91.8386 147.693 100 147.693C108.162 147.693 111.828 143.045 117.331 140.782C123.034 138.439 131.13 129.155 133.081 122.977C135.682 114.74 141.384 89.5983 141.391 89.5603H141.393C142.305 86.0501 142.795 82.3662 142.801 78.5669C142.839 54.6421 123.64 35.2232 100.001 35.1859Z" fill="#E9B995"/>
<path d="M128.638 46.3453C135.968 54.1955 140.498 65.0315 140.482 76.9939C140.476 80.7931 140.014 84.4778 139.15 87.9873H139.15C139.142 88.0253 133.749 113.167 131.288 121.404C129.444 127.583 121.785 136.866 116.392 139.209C111.186 141.471 107.72 146.121 100.001 146.121C92.2816 146.121 88.815 141.471 83.6108 139.209C78.2167 136.866 70.5598 127.583 68.7147 121.404C66.2536 113.167 60.8616 88.0253 60.8532 87.9873C59.989 84.4771 59.5263 80.7931 59.5207 76.9939C59.5031 65.0322 64.0337 54.1976 71.3622 46.3474C62.6561 54.289 57.1805 65.7831 57.2002 78.5669C57.2065 82.3661 57.6952 86.0508 58.608 89.5603C58.6164 89.5983 64.3184 114.74 66.9202 122.977C68.8715 129.155 76.9672 138.439 82.6699 140.782C88.173 143.045 91.8386 147.693 100 147.693C108.162 147.693 111.828 143.045 117.331 140.782C123.034 138.439 131.13 129.155 133.081 122.977C135.682 114.74 141.384 89.5983 141.391 89.5603H141.393C142.305 86.0501 142.795 82.3661 142.801 78.5669C142.822 65.7817 137.346 54.2869 128.638 46.3453Z" fill="#E1AC85"/>
<path d="M100.001 35.1859C76.3617 35.2232 57.1636 54.6421 57.2002 78.5669C57.2065 82.3662 57.6952 86.0508 58.608 89.5603C58.6164 89.5983 64.3184 114.74 66.9202 122.977C68.8715 129.155 76.9672 138.439 82.6699 140.782C88.173 143.045 91.8386 147.693 100 147.693C108.162 147.693 111.828 143.045 117.331 140.782C123.034 138.439 131.13 129.155 133.081 122.977C135.682 114.74 141.384 89.5983 141.391 89.5603H141.393C142.305 86.0501 142.795 82.3662 142.801 78.5669C142.839 54.6421 123.64 35.2232 100.001 35.1859Z" stroke="#BB7440" stroke-width="1.5"/>
<path d="M97.3466 132.484L103.181 132.339C102.505 135.482 97.8085 135.03 97.3466 132.484Z" fill="url(#paint1_linear_7_1535)"/>
<path d="M97.4281 132.683C97.1673 132.648 97.2066 132.276 97.4844 132.302C97.5146 132.306 100.514 132.686 103.024 132.151C103.295 132.098 103.376 132.471 103.115 132.526C101.149 132.947 98.6039 132.848 97.4281 132.683ZM100.058 130.173C99.0011 130.173 97.9766 129.806 96.9472 129.627C95.794 129.425 94.645 129.598 93.4911 129.7C92.3125 129.805 89.741 129.691 89.0154 129.232C88.6089 128.974 88.6849 128.373 89.1426 128.213C89.5744 128.058 90.2473 128.379 90.6833 128.457C92.7028 128.819 93.766 128.433 95.5366 128.374C98.2445 128.292 98.5321 129.429 101.91 128.747C105.542 128.013 107.178 128.568 109.784 127.783C110.141 127.675 110.566 127.39 110.94 127.582C111.373 127.806 111.352 128.416 110.906 128.612C108.511 129.668 105.861 129.241 103.203 129.685C102.161 129.858 101.122 130.173 100.058 130.173Z" fill="#BB7440"/>
<path d="M73.1046 92.6044C72.7488 90.9976 76.7548 89.8107 82.0426 90.459C87.3291 91.108 90.9997 94.3433 90.5173 95.9747C90.2501 96.879 83.0362 98.2565 80.495 97.9766C77.9185 97.6919 73.9639 96.4838 73.1046 92.6044Z" fill="url(#paint2_radial_7_1535)"/>
<path d="M85.9639 94.9355C85.3528 97.1801 83.0387 98.5027 80.7899 97.8861C78.5433 97.2701 77.2157 94.9482 77.8282 92.703C78.4385 90.4563 80.7583 89.1336 83.0049 89.751C85.2502 90.3663 86.5757 92.6882 85.9639 94.9355Z" fill="#3E4442" stroke="#0E1613" stroke-width="0.5"/>
<path d="M81.3761 91.2966L81.2664 91.1004C80.881 91.2537 80.5098 91.4133 80.1589 91.5835L80.4191 92.2121L80.386 92.5757L79.3833 91.9857C79.0556 92.1678 78.7518 92.3577 78.4565 92.5511L78.4593 92.5574L78.1155 92.9441L78.6646 93.506L77.9249 93.9096L78.2048 94.3716L79.5106 94.5017L78.2863 95.3321L79.5963 95.2597L78.9058 96.4502L80.521 95.4728L80.0865 97.1351L81.021 95.5993L81.201 97.2469L81.471 95.7899L81.7192 95.7597L82.0708 97.4121L82.1777 96.9164C82.319 96.8798 82.6826 97.4114 82.8211 97.3741L82.4104 95.5768L83.3119 97.3741L82.9463 95.51L84.0559 96.9515C84.096 96.9389 84.1937 96.3538 84.2331 96.3419L83.5426 95.3089L84.7977 95.6879L84.0446 94.8722L83.4399 94.3716L85.9615 94.9362L84.5572 94.0805L85.5494 93.6747L83.4012 93.4575L85.5255 92.331L83.603 92.8218L83.0855 92.5412L82.9582 92.2923L82.9948 91.6974L83.0377 90.7207L82.1601 92.2663L82.0828 91.1349L81.9724 90.8388C81.7966 90.9 81.6243 90.9598 81.4548 91.0252L81.3761 91.2966Z" fill="#535353"/>
<path opacity="0.9" d="M86.0107 92.9433C82.3246 93.1114 80.4507 93.8996 77.7786 94.7934C77.2639 92.5228 78.6913 90.2663 80.964 89.7558C83.2366 89.2453 85.4966 90.6721 86.0107 92.9433Z" fill="#2B3531"/>
<path opacity="0.8" d="M82.504 92.411C81.5765 92.1452 80.6293 92.6747 80.3909 93.5994C80.1504 94.5192 80.7088 95.4825 81.6362 95.7483C82.5644 96.0148 83.5116 95.4846 83.7521 94.5641C83.9933 93.6395 83.4329 92.6768 82.504 92.411Z" fill="black"/>
<path d="M82.504 92.411C81.5765 92.1452 80.6293 92.6747 80.3909 93.5994C80.1504 94.5192 80.7088 95.4825 81.6362 95.7483C82.5644 96.0148 83.5116 95.4846 83.7521 94.5641C83.9933 93.6395 83.4329 92.6768 82.504 92.411Z" stroke="#0E1613" stroke-width="0.75"/>
<path opacity="0.4" d="M78.8207 96.3221C79.2518 97.0063 79.8234 97.5217 80.6335 97.6933C81.5659 97.8909 81.6721 96.6505 81.0048 96.5084C80.4985 96.4015 80.1778 96.1533 79.9135 95.7335C79.4297 94.9649 78.4326 95.7061 78.8207 96.3221Z" fill="white"/>
<path d="M82.6193 92.0558C83.2725 92.1873 83.6523 92.5958 83.982 93.209C84.5882 94.3369 86.3018 93.3342 85.6957 92.207C85.1634 91.2169 84.276 90.3696 83.1467 90.141C81.7002 89.8492 81.4977 91.8294 82.6193 92.0558Z" fill="url(#paint3_linear_7_1535)"/>
<path d="M67.1571 92.9397C67.726 100.604 75.34 109.523 81.5764 108.575C88.9583 108.65 96.2475 103.043 96.2475 92.8911C96.2475 82.7394 92.6704 74.2373 81.3915 74.2373C73.305 74.2366 67.1571 82.7879 67.1571 92.9397ZM73.1046 92.6042C72.7488 90.9975 76.7547 89.8105 82.0426 90.4589C87.3291 91.1079 90.9997 94.3432 90.5173 95.9746C90.2501 96.8788 83.0362 98.2564 80.4949 97.9765C77.9185 97.6917 73.9638 96.4837 73.1046 92.6042Z" fill="#E9B995"/>
<path d="M80.495 97.9766C83.0362 98.2564 90.2501 96.8789 90.5173 95.9746C91.0004 94.3433 87.3291 91.1079 82.0426 90.4589C77.5001 89.902 73.9118 90.7008 73.2136 91.9553C73.845 87.4549 78.628 83.9412 84.4552 83.9152C90.7212 83.8891 95.8101 87.9064 95.827 92.8912C95.8418 97.8753 90.7747 101.935 84.5094 101.964C78.242 101.99 73.1538 97.9723 73.1369 92.9882C73.1369 92.9144 73.1482 92.842 73.1503 92.7681C74.0855 96.514 77.9558 97.696 80.495 97.9766Z" fill="url(#paint4_radial_7_1535)"/>
<path d="M73.1046 92.6044C72.7488 90.9976 76.7548 89.8107 82.0426 90.459C87.3291 91.108 90.9997 94.3433 90.5173 95.9747C90.2501 96.879 83.0362 98.2565 80.495 97.9766C77.9185 97.6919 73.9639 96.4838 73.1046 92.6044Z" fill="url(#paint5_radial_7_1535)"/>
<path d="M73.383 89.0139C76.342 87.623 79.9577 87.495 83.1136 88.3072C84.804 88.7017 86.6048 89.2108 88.0801 90.1622C89.4478 90.9603 90.5588 91.9201 91.5974 93.1085C90.6537 91.9124 89.6475 90.916 88.3466 90.1059C86.7462 89.1102 84.9932 88.4928 83.1684 88.0555C79.9437 87.2637 76.3322 87.4437 73.383 89.0139Z" fill="#BB7440"/>
<path d="M73.8197 89.438C74.4385 89.1905 76.6781 88.7348 77.6562 88.6884C78.8425 88.6308 81.2234 88.7763 82.3921 88.9866C84.7646 89.4141 88.8972 90.7325 90.6038 94.0382C91.1284 95.0543 90.6558 95.7652 90.5173 95.9192C90.7283 94.2133 87.1153 91.1755 82.0426 90.5722C76.7548 89.9436 72.7488 91.0947 73.1046 92.6522C73.9639 96.4128 77.9185 97.5836 80.495 97.8592C83.3773 98.1679 88.7109 96.777 89.4154 96.6266C88.0098 97.3361 84.1247 98.0997 82.5475 98.246C82.0244 98.2952 80.9724 98.3191 80.4478 98.3057C76.2647 98.1946 73.2973 96.0732 72.2003 93.2007C71.4957 91.3542 72.2664 90.0582 73.8197 89.438Z" fill="black"/>
<path d="M126.614 92.6043C126.97 90.9975 122.964 89.8105 117.676 90.4589C112.39 91.1079 108.719 94.3432 109.201 95.9746C109.469 96.8789 116.682 98.2564 119.224 97.9765C121.8 97.6917 125.755 96.4837 126.614 92.6043Z" fill="url(#paint6_radial_7_1535)"/>
<path d="M122.177 94.9346C121.566 97.1798 119.252 98.5025 117.003 97.8851C114.757 97.2691 113.43 94.9472 114.042 92.702C114.651 90.4553 116.972 89.1327 119.218 89.7501C121.464 90.3667 122.789 92.6886 122.177 94.9346Z" fill="#3E4442" stroke="#0E1613" stroke-width="0.5"/>
<path d="M117.59 91.2963L117.481 91.1008C117.096 91.2534 116.725 91.4137 116.373 91.5832L116.633 92.2118L116.6 92.5754L115.597 91.9854C115.269 92.1675 114.966 92.3574 114.671 92.5508L114.674 92.5571L114.33 92.9445L114.88 93.5064L114.14 93.9093L114.419 94.3713L115.725 94.5014L114.501 95.3318L115.811 95.2594L115.12 96.4492L116.735 95.4718L116.301 97.1341L117.235 95.5983L117.416 97.2459L117.686 95.7882L117.934 95.7579L118.286 97.4104L118.393 96.9154C118.534 96.8788 118.898 97.4097 119.036 97.3731L118.625 95.5758L119.527 97.3731L119.16 95.509L120.269 96.9505C120.309 96.9379 120.408 96.3528 120.447 96.3409L119.757 95.3079L121.013 95.6862L120.26 94.8705L119.655 94.3699L122.177 94.9338L120.773 94.0788L121.765 93.673L119.618 93.4565L121.742 92.3293L119.819 92.8201L119.302 92.5395L119.175 92.2906L119.212 91.695L119.255 90.719L118.378 92.2646L118.3 91.1332L118.191 90.8364C118.015 90.8976 117.843 90.9581 117.674 91.0228L117.59 91.2963Z" fill="#535353"/>
<path opacity="0.9" d="M122.224 92.943C118.539 93.111 116.664 93.8993 113.992 94.793C113.478 92.5225 114.905 90.266 117.178 89.7555C119.45 89.2443 121.711 90.6717 122.224 92.943Z" fill="#2B3531"/>
<path opacity="0.8" d="M118.718 92.4108C117.791 92.145 116.844 92.6752 116.605 93.5992C116.364 94.5189 116.922 95.4823 117.85 95.7481C118.779 96.0146 119.726 95.4844 119.966 94.5639C120.207 93.6392 119.646 92.6766 118.718 92.4108Z" fill="black"/>
<path d="M118.718 92.4108C117.791 92.145 116.844 92.6752 116.605 93.5992C116.364 94.5189 116.922 95.4823 117.85 95.7481C118.779 96.0146 119.726 95.4844 119.966 94.5639C120.207 93.6392 119.646 92.6766 118.718 92.4108Z" stroke="#0E1613" stroke-width="0.75"/>
<path opacity="0.4" d="M115.035 96.3218C115.465 97.006 116.038 97.5214 116.847 97.693C117.779 97.8906 117.886 96.6509 117.218 96.5081C116.712 96.4012 116.391 96.1537 116.127 95.7332C115.644 94.9646 114.646 95.7058 115.035 96.3218Z" fill="white"/>
<path d="M118.833 92.0557C119.487 92.1872 119.866 92.5951 120.196 93.2082C120.802 94.3361 122.517 93.3334 121.91 92.2062C121.378 91.2162 120.491 90.3688 119.361 90.1403C117.914 89.8492 117.711 91.8293 118.833 92.0557Z" fill="url(#paint7_linear_7_1535)"/>
<path d="M118.326 74.2368C107.048 74.2368 103.47 82.7388 103.47 92.8906C103.47 103.042 110.76 108.65 118.142 108.575C124.378 109.522 131.992 100.603 132.561 92.9391C132.562 82.7881 126.413 74.2368 118.326 74.2368ZM119.224 97.9767C116.682 98.2565 109.469 96.879 109.201 95.9747C108.718 94.3433 112.39 91.108 117.676 90.459C122.964 89.8107 126.97 90.9983 126.614 92.6044C125.755 96.4838 121.8 97.6919 119.224 97.9767Z" fill="#E9B995"/>
<path d="M119.224 97.9766C116.682 98.2564 109.469 96.8789 109.201 95.9746C108.718 94.3433 112.39 91.1079 117.676 90.4589C122.219 89.902 125.807 90.7015 126.505 91.9553C125.874 87.4549 121.091 83.9412 115.263 83.9152C108.997 83.8891 103.909 87.9064 103.892 92.8912C103.877 97.8753 108.944 101.935 115.209 101.964C121.477 101.99 126.565 97.9723 126.582 92.9882C126.582 92.9144 126.57 92.842 126.568 92.7681C125.632 96.514 121.762 97.696 119.224 97.9766Z" fill="url(#paint8_radial_7_1535)"/>
<path d="M126.614 92.6043C126.97 90.9975 122.964 89.8105 117.676 90.4589C112.39 91.1079 108.719 94.3432 109.201 95.9746C109.469 96.8789 116.682 98.2564 119.224 97.9765C121.8 97.6917 125.755 96.4837 126.614 92.6043Z" fill="url(#paint9_radial_7_1535)"/>
<path d="M126.335 89.0138C123.376 87.6229 119.76 87.4949 116.604 88.3071C114.914 88.7016 113.113 89.2107 111.638 90.1621C110.27 90.9602 109.159 91.92 108.121 93.1084C109.064 91.9123 110.07 90.9159 111.371 90.1058C112.972 89.1101 114.725 88.4927 116.55 88.0553C119.775 87.2636 123.387 87.4436 126.335 89.0138Z" fill="#BB7440"/>
<path d="M125.899 89.4378C125.28 89.1902 123.041 88.7346 122.062 88.6882C120.876 88.6305 118.495 88.7761 117.327 88.9863C114.954 89.4138 110.821 90.7323 109.115 94.0379C108.59 95.054 109.063 95.7649 109.201 95.9189C108.99 94.213 112.603 91.1753 117.676 90.572C122.964 89.9433 126.97 91.0944 126.614 92.652C125.755 96.4126 121.8 97.5833 119.224 97.859C116.341 98.1677 111.008 96.7768 110.303 96.6263C111.709 97.3358 115.594 98.0995 117.171 98.2457C117.694 98.2949 118.746 98.3189 119.271 98.3055C123.454 98.1944 126.421 96.0729 127.518 93.2004C128.223 91.3539 127.452 90.058 125.899 89.4378Z" fill="black"/>
<path d="M128.83 114.72C128.854 130.627 115.967 143.546 100.043 143.568C84.122 143.594 71.1934 130.718 71.1688 114.808C71.1442 98.9019 84.0312 85.9326 99.9546 85.9073C115.877 85.8827 128.807 98.8105 128.83 114.72Z" fill="url(#paint10_radial_7_1535)"/>
<path d="M126.369 72.547C126.369 87.1104 114.563 98.9161 100 98.9161C85.4369 98.9161 73.6306 87.1104 73.6306 72.547C73.6306 57.9835 85.4369 46.1779 100 46.1779C114.563 46.1779 126.369 57.9835 126.369 72.547Z" fill="url(#paint11_radial_7_1535)"/>
<path d="M67.6536 86.7442C74.653 79.7307 79.4395 82.5849 89.163 84.4491C89.7572 84.563 93.6071 85.5312 92.8969 86.8884C92.5573 87.5381 91.4652 87.4608 90.8556 87.4495C81.2305 87.2695 76.5502 80.4213 67.6536 86.7442Z" fill="#2A232B"/>
<path d="M132.346 86.7442C125.347 79.7307 120.56 82.5849 110.836 84.4491C110.241 84.563 106.392 85.5312 107.102 86.8884C107.441 87.5381 108.533 87.4608 109.143 87.4495C118.768 87.2695 123.449 80.4213 132.346 86.7442Z" fill="#2A232B"/>
<path d="M93.7519 115.792C93.1345 117.243 97.9246 118.81 99.7423 118.906C101.711 119.01 107.228 116.867 106.293 115.396C105.309 113.853 101.622 115.195 100.031 115.195C98.447 115.194 94.5789 113.856 93.7519 115.792Z" fill="#DAA075"/>
<path d="M101.305 116.888C101.144 116.355 102.625 115.774 103.174 115.697C103.948 115.585 105.536 116.261 105.394 116.817C105.265 117.307 103.884 116.442 103.383 116.515C102.867 116.59 101.459 117.388 101.305 116.888ZM96.4655 116.715C97.1462 116.715 98.1559 117.153 98.3416 116.767C98.5631 116.306 96.8375 115.739 96.3305 115.802C95.9114 115.851 94.4087 116.727 94.6154 117.095C94.8081 117.433 95.5682 116.715 96.4655 116.715Z" fill="#BB7440"/>
<path opacity="0.2" d="M100.062 113.331C100.489 113.331 101.287 112.811 101.322 111.763C101.464 107.538 100.65 95.0043 100.062 95.0486C99.5137 95.0901 98.4681 107.45 98.6924 111.763C98.748 112.819 99.5805 113.331 100.062 113.331Z" fill="#FFE8D6"/>
<path d="M99.8942 151.359C98.3331 151.029 94.2266 149.728 92.996 149.208C90.6052 148.223 89.0723 146.936 88.3129 145.27C86.8714 141.803 90.542 130.756 99.9856 133.576C105.47 132.43 108.346 134.293 110.934 139.391C112.186 141.993 112.404 143.864 111.637 145.453C110.428 147.956 106.694 149.834 99.8942 151.359Z" fill="#2A232B"/>
<path d="M99.8942 151.437C98.2909 151.099 94.1492 149.777 92.9679 149.278C90.8584 148.406 89.1145 147.197 88.2496 145.305C87.1386 142.633 88.9879 135.756 93.9664 133.668C90.9568 136.762 88.3269 141.142 90.8935 145.179C93.0523 148.42 98.2979 149.391 99.852 150.361C102.826 148.912 107.355 148.603 109.478 144.405C110.737 142.141 109.408 137.043 106.827 134.244C108.522 135.278 109.816 137.029 111.004 139.363C113.487 144.539 112.854 148.519 99.8942 151.437ZM100.105 151.352C99.5707 150.649 99.5918 150.705 99.0644 149.707C96.1955 144.096 91.8709 142.802 93.5374 139.061C92.9608 142.078 96.4275 144.103 97.7706 145.804C97.9885 146.079 98.1011 146.268 98.1011 146.268C99.5566 148.751 99.2824 149.355 100.105 151.352ZM104.254 147.14C107.186 145.186 107.643 141.009 105.161 138.787C106.82 141.199 106.307 145.312 104.254 147.14ZM98.4245 136.072C98.3331 135.137 98.8183 134.99 98.8183 134.99C98.8183 134.99 98.4456 135.067 98.2487 135.559C97.426 137.753 99.6129 139.019 100.625 143.681C100.85 139.539 98.7199 138.723 98.4245 136.072Z" fill="#1B141C"/>
<path d="M110.99 139.363C108.585 134.631 105.73 132.268 99.9996 133.513C90.5419 130.686 86.7659 141.74 88.2425 145.305C89.1074 147.197 90.8513 148.406 92.9608 149.278C94.1422 149.777 98.2839 151.099 99.8871 151.437C112.854 148.519 113.487 144.539 110.99 139.363ZM100.323 151.106C100.182 151.156 100.042 151.198 99.9082 151.233C94.3531 149.412 90.2747 147.977 88.9527 145.066C87.7151 142.113 90.2606 131.65 99.9926 133.675C105.639 132.866 107.917 135.004 110.315 139.638C113.571 146.571 108.846 148.273 100.323 151.106Z" fill="black"/>
<path d="M61.3067 101.304C59.6029 95.1054 58.6853 89.6783 57.4111 84.0163L57.4695 84.0029C56.9871 82.8153 55.2461 73.4131 55.2299 73.3119C53.4544 60.8164 58.7408 60.1034 58.6332 54.8901C60.8588 56.0046 63.0225 55.4519 64.9752 53.9302C62.9233 52.8762 63.5709 52.7095 60.8461 51.0507C62.7665 50.7188 63.8881 51.1668 65.5194 51.37C64.125 49.9756 61.3883 47.1313 59.61 47.5082L59.4939 47.2592C62.0683 45.2503 65.5047 49.4327 68.6029 48.2999C68.6964 36.7868 85.5262 34.396 89.6222 32.6852C95.0753 30.6101 100.772 26.0465 104.778 25.6387C102.51 27.9177 101.121 31.5798 101.018 34.3285C104.321 31.1741 104.555 31.2662 109.562 25.7048C109.562 30.1798 108.322 30.7416 106.714 33.368C111.081 30.5061 116.526 22.4765 124.912 21.2488L125.005 21.509C121.982 23.2894 119.644 26.2934 118.045 30.4449C119.632 28.528 121.878 26.4488 124.363 26.0726L124.457 26.332C122.899 27.2637 119.848 30.3697 119.15 35.5703C122.231 32.1297 127.131 29.2783 130.495 28.2011L130.626 28.4444C127.538 30.9568 126.3 35.3552 125.602 39.0947C127.767 35.8741 129.027 35.14 131.752 33.7871C130.875 35.0985 130.932 34.8693 130.235 36.2946C131.92 40.6002 137.487 40.7675 138.438 48.2901C139.584 47.2888 140.039 47.0377 141.357 46.1159L141.555 46.3071C140.565 47.845 139.749 50.5684 139.205 52.391C141.16 50.8982 144.179 49.7984 146.304 49.0312L146.453 49.2619C144.659 51.0852 142.481 53.8649 142.12 56.8801C142.823 56.4638 142.857 56.5116 143.772 55.8492C143.772 58.0157 143.846 57.7393 143.862 58.7357C144.745 57.9447 144.881 57.8343 145.462 57.2021C145.333 79.9583 144.165 75.4228 141.02 91.2822C140.469 94.0689 139.493 98.9349 138.868 101.272L134.614 102.003C135.929 86.2559 134.549 89.6888 135.505 79.7797C136.92 65.1684 125.095 53.1912 109.47 57.1114C106.309 57.9046 93.6908 57.9039 90.5307 57.1114C73.2698 52.7777 67.051 62.8634 65.1981 80.5117C64.2903 89.1734 64.0681 86.2503 65.3858 102.003L61.3067 101.304Z" fill="#2A232B"/>
<path d="M143.861 58.7366C143.846 57.7395 143.772 58.0166 143.772 55.8501C142.856 56.5118 142.822 56.4646 142.119 56.8809C142.481 53.8657 144.658 51.0861 146.452 49.2627L146.304 49.0321C144.179 49.8 141.16 50.899 139.204 52.3919C139.747 50.5692 140.564 47.8458 141.554 46.308L141.356 46.1167C140.038 47.0386 139.583 47.2896 138.437 48.2909C137.486 40.7691 131.919 40.601 130.234 36.2955C130.932 34.8701 130.875 35.0994 131.751 33.7879C129.027 35.1409 127.767 35.875 125.601 39.0955C126.299 35.356 127.538 30.9577 130.626 28.4452L130.494 28.2019C127.13 29.2792 122.23 32.1306 119.149 35.5712C119.847 30.3705 122.899 27.2646 124.456 26.3329L124.363 26.0734C121.877 26.4496 119.631 28.5296 118.044 30.4458C119.643 26.2942 121.982 23.2902 125.004 21.5098L124.912 21.2496C116.526 22.4774 111.08 30.5069 106.713 33.3689C108.322 30.7425 109.561 30.18 109.561 25.7057C104.554 31.2671 104.321 31.175 101.017 34.3294C101.12 31.5807 102.509 27.9178 104.777 25.6396C100.772 26.0474 95.0753 30.6103 89.6215 32.6861C85.5262 34.3962 68.6964 36.787 68.6028 48.3008C65.5047 49.4336 62.0682 45.2511 59.4939 47.2601L59.6099 47.509C61.3883 47.1314 64.125 49.9757 65.5194 51.3708C63.8888 51.1676 62.7665 50.7197 60.8461 51.0516C63.5709 52.7104 62.9233 52.877 64.9752 53.9311C63.0224 55.4528 60.8588 56.0055 58.6332 54.8909C58.7408 60.105 53.4536 60.818 55.2299 73.3127C55.246 73.414 56.9871 82.8161 57.4695 84.0038L57.4111 84.0172C58.6853 89.6791 59.6029 95.1069 61.3067 101.305L61.325 101.307C60.8602 89.7452 53.576 73.3092 57.8506 62.7813C58.4082 61.4066 60.5656 57.781 60.5656 57.781C60.5656 57.781 67.335 56.8922 67.6536 54.2651C67.6536 54.2651 66.2472 53.5619 65.544 52.8588C66.9504 53.5619 66.9504 51.4524 68.3567 52.1556C68.3567 50.7492 66.2472 51.4524 66.2472 50.0461C67.6536 50.0461 69.0599 50.0461 70.4663 51.4524C69.7631 47.9365 70.4663 44.4207 73.279 42.3111C80.3107 36.6857 89.452 37.3889 96.4837 31.7635C95.7806 35.2794 95.0774 38.7953 95.0774 42.3111C99.2964 40.2016 100.703 35.9826 104.219 33.1699C104.922 35.9826 103.515 39.4984 103.515 42.3111C105.625 37.3889 108.438 32.4667 114.766 31.0603C111.954 33.873 111.954 38.0921 111.954 41.608C111.954 38.7953 114.766 37.3889 115.469 35.2794C115.469 38.0921 115.469 40.9048 115.469 43.7175C116.876 39.4984 119.689 37.3889 123.204 35.9826C120.392 38.7953 121.095 41.608 120.392 45.1238C122.501 43.0143 125.314 42.3111 127.423 40.2016C129.533 44.4207 128.127 47.9365 128.127 52.1556C128.83 48.6397 132.346 46.5302 134.455 43.7175C135.158 47.2334 135.158 50.7492 134.455 54.2651C135.158 52.1556 136.565 50.7492 137.268 48.6397C137.268 52.0571 136.798 55.0119 135.876 57.8808C136.758 56.8598 138.199 56.3964 138.674 54.9683C138.674 58.0095 138.674 60.5262 138.674 63.4254C139.082 62.5872 140.285 62.2947 140.784 61.2969C140.183 63.6968 140.605 65.5883 140.742 67.8378C141.003 66.4596 142.33 65.6144 142.81 64.3451C142.838 63.7981 142.867 63.2503 142.893 62.7032C143.054 63.3445 142.988 63.8733 142.81 64.3451C142.168 76.8413 140.986 89.3191 138.411 101.352L138.866 101.274C139.492 98.9364 140.467 94.0705 141.019 91.2838C144.164 75.4244 145.333 79.9598 145.461 57.2037C144.88 57.8358 144.745 57.9462 143.861 58.7366Z" fill="#3A353A"/>
<path d="M147.66 48.4252C144.18 49.0117 141.749 50.1396 139.89 51.4137C140.161 50.707 141.432 46.7236 142.801 45.05C140.699 45.9873 139.482 46.9929 138.779 47.5182C138.779 46.7925 138.499 45.9543 138.364 45.5211C138.231 45.159 138.119 44.7357 137.47 43.6788C133.834 38.5484 133.607 40.6945 130.629 36.7666C131.172 35.4932 131.958 34.2549 132.943 33.2296C130.195 33.6199 128.748 34.6887 127.008 36.401C126.98 36.4291 126.959 36.4572 126.938 36.4853C128.028 32.1777 130.165 28.4431 134.363 27.0417C129.171 26.8532 122.743 30.6926 119.512 34.5235C120.907 30.0365 122.779 27.8989 125.56 25.9096C123.559 25.6135 121.598 26.4313 120.046 27.7238C121.833 24.6319 124.488 22.1694 126.622 21.0225C126.319 21.0155 125.961 20.9944 125.567 21.0225C125.021 20.8826 121.714 21.4205 120.532 21.9296C114.676 24.2163 110.414 29.5394 108.585 31.2678C109.933 29.0893 109.999 27.5424 109.753 25.2767C109.292 25.6726 101.585 33.0503 101.49 33.1453C102.037 30.1153 103.069 28.2673 105.02 25.558C101.542 24.9069 92.8329 30.6328 87.4339 32.1608C81.7776 33.693 67.7422 36.8883 68.3849 48.1229C65.3648 48.6988 60.9425 43.8497 58.6248 47.919C60.4854 46.815 62.9501 49.473 64.6651 50.9918C63.9619 50.8772 61.6112 50.3252 60.4742 51.0833C61.806 51.6001 62.9704 53.145 64.6159 53.9663C64.637 53.9733 64.6581 53.9803 64.6792 53.9944C63.1751 54.7876 61.3974 55.4247 59.764 54.9718C59.5179 54.9015 59.3561 54.8593 59.3561 54.8523C59.1663 54.7679 58.9624 54.6835 58.7444 54.5851H58.7373L58.7303 54.578C58.6389 54.5288 58.5475 54.4796 58.449 54.4304C58.9377 58.3738 52.9523 61.5711 53.6112 69.9143C53.8819 75.0482 57.0912 90.6636 61.1253 101.252L61.465 101.353C59.783 95.2876 58.8091 89.5821 57.549 83.9841C57.4393 83.9841 55.3881 73.4055 55.3691 73.2888C53.607 60.8911 58.8808 59.9918 58.7795 55.1188C60.9741 56.2164 63.3727 55.4254 65.2347 53.9023C63.0422 52.8117 63.5098 52.5044 61.2406 51.1247C62.7616 50.8617 64.618 51.4644 65.8957 51.5466C64.246 49.897 61.4664 46.969 59.5811 47.3698C62.0901 45.4114 65.556 49.6699 68.7435 48.3964C68.7435 36.8763 85.4249 34.5896 89.677 32.8141C94.7898 30.8691 101.127 26.1508 104.401 25.8175C102.685 27.5459 100.871 31.3733 100.871 34.6634C104.27 31.4021 104.605 31.4183 109.421 26.0706C109.421 30.2995 107.841 31.0547 106.306 33.7844C110.816 31.1841 116.276 22.6546 124.933 21.3875C121.309 23.523 119.002 27.2414 117.613 31.2108C119.267 29.0598 121.691 26.6191 124.384 26.2112C122.972 27.0565 119.56 30.277 118.956 36.0065C122.011 32.4104 127.103 29.4346 130.537 28.3348C127.299 30.9703 126.059 35.6275 125.341 39.7403C126.527 37.9311 127.701 36.2969 129.539 35.1416C129.546 35.1345 129.56 35.1275 129.567 35.1275C130.29 34.636 130.101 34.7696 131.339 34.1501C130.869 34.8533 130.825 34.7619 130.081 36.2877C131.787 40.7719 137.48 40.7972 138.328 48.5722C139.634 47.4141 140.045 47.2052 141.436 46.2306C140.352 47.914 139.479 50.9897 138.94 52.7842C140.983 51.0368 144.762 49.7395 146.352 49.1629C144.242 51.3076 142.194 54.1526 141.95 57.1509C142.381 56.8605 142.93 56.6306 143.63 56.1243C143.63 58.0398 143.722 57.7838 143.722 59.0495C144.092 58.7113 144.931 57.9877 145.319 57.5658C145.181 79.8677 143.997 75.5418 140.881 91.2549C139.715 97.1447 139.1 99.8688 138.714 101.298L139.015 101.237C141.536 93.6774 146.565 76.5966 146.338 67.7548C146.315 64.4499 145.594 57.5588 145.558 56.8556C145.543 56.8683 144.092 58.2409 144.074 58.2409C144.074 57.8815 143.926 56.3528 143.926 55.5196C143.678 55.7101 143.156 56.0667 142.457 56.4759C143.426 53.5486 144.902 51.7295 147.66 48.4252Z" fill="black"/>
<defs>
<linearGradient id="paint0_linear_7_1535" x1="99.9996" y1="154.819" x2="99.9996" y2="123.879" gradientUnits="userSpaceOnUse">
<stop stop-color="#DAA075" stop-opacity="0.8"/>
<stop offset="0.7" stop-color="#BB7440"/>
</linearGradient>
<linearGradient id="paint1_linear_7_1535" x1="99.9996" y1="134.427" x2="99.9996" y2="132.317" gradientUnits="userSpaceOnUse">
<stop offset="0.1" stop-color="#E1AC85"/>
<stop offset="1" stop-color="#DAA075"/>
</linearGradient>
<radialGradient id="paint2_radial_7_1535" cx="0" cy="0" r="1" gradientUnits="userSpaceOnUse" gradientTransform="translate(81.1854 93.9707) rotate(174.019) scale(10.6293 10.6293)">
<stop stop-color="white"/>
<stop offset="0.315" stop-color="#FCFDFD"/>
<stop offset="0.504" stop-color="#F4F7F8"/>
<stop offset="0.66" stop-color="#E5ECEF"/>
<stop offset="0.76" stop-color="#D8E2E7"/>
</radialGradient>
<linearGradient id="paint3_linear_7_1535" x1="87.5183" y1="89.5996" x2="83.2993" y2="93.8186" gradientUnits="userSpaceOnUse">
<stop stop-color="white"/>
<stop offset="1" stop-color="white" stop-opacity="0"/>
</linearGradient>
<radialGradient id="paint4_radial_7_1535" cx="0" cy="0" r="1" gradientUnits="userSpaceOnUse" gradientTransform="translate(84.5379 92.5857) rotate(1.19182) scale(11.2531 9.00202)">
<stop stop-color="#DAA075"/>
<stop offset="0.7" stop-color="#DAA075" stop-opacity="0.3"/>
<stop offset="1" stop-color="#E9B995" stop-opacity="0"/>
</radialGradient>
<radialGradient id="paint5_radial_7_1535" cx="0" cy="0" r="1" gradientUnits="userSpaceOnUse" gradientTransform="translate(78.6002 112.537) scale(21.4581 21.4581)">
<stop offset="0.95" stop-opacity="0"/>
<stop offset="1" stop-opacity="0.2"/>
</radialGradient>
<radialGradient id="paint6_radial_7_1535" cx="0" cy="0" r="1" gradientUnits="userSpaceOnUse" gradientTransform="translate(118.534 93.9701) rotate(5.98141) scale(10.6286)">
<stop stop-color="white"/>
<stop offset="0.316" stop-color="#FCFDFD"/>
<stop offset="0.505" stop-color="#F4F7F8"/>
<stop offset="0.661" stop-color="#E5ECEF"/>
<stop offset="0.76" stop-color="#D8E2E7"/>
</radialGradient>
<linearGradient id="paint7_linear_7_1535" x1="122.325" y1="89.5995" x2="118.106" y2="93.8186" gradientUnits="userSpaceOnUse">
<stop stop-color="white"/>
<stop offset="1" stop-color="white" stop-opacity="0"/>
</linearGradient>
<radialGradient id="paint8_radial_7_1535" cx="0" cy="0" r="1" gradientUnits="userSpaceOnUse" gradientTransform="translate(115.18 92.5857) rotate(178.808) scale(11.2531 9.00202)">
<stop stop-color="#DAA075"/>
<stop offset="0.7" stop-color="#DAA075" stop-opacity="0.3"/>
<stop offset="1" stop-color="#E9B995" stop-opacity="0"/>
</radialGradient>
<radialGradient id="paint9_radial_7_1535" cx="0" cy="0" r="1" gradientUnits="userSpaceOnUse" gradientTransform="translate(121.119 112.537) rotate(180) scale(21.4581 21.4581)">
<stop offset="0.95" stop-opacity="0"/>
<stop offset="1" stop-opacity="0.2"/>
</radialGradient>
<radialGradient id="paint10_radial_7_1535" cx="0" cy="0" r="1" gradientUnits="userSpaceOnUse" gradientTransform="translate(99.9997 114.738) scale(28.8302 28.8302)">
<stop stop-color="#F8D3B8" stop-opacity="0.5"/>
<stop offset="0.9" stop-color="#E9B995" stop-opacity="0"/>
</radialGradient>
<radialGradient id="paint11_radial_7_1535" cx="0" cy="0" r="1" gradientUnits="userSpaceOnUse" gradientTransform="translate(99.9996 72.5477) scale(26.0175 26.0175)">
<stop stop-color="#F8D3B8" stop-opacity="0.5"/>
<stop offset="0.9" stop-color="#E9B995" stop-opacity="0"/>
</radialGradient>
</defs>
</svg>
