<svg width="200" height="200" viewBox="0 0 200 200" fill="none" xmlns="http://www.w3.org/2000/svg">
<rect width="200" height="200" fill="#30649F"/>
<path d="M100.006 120.66C96.353 120.66 68.4445 119.573 68.4445 137.404C80.0726 137.404 100.006 137.404 100.006 137.404C100.006 137.404 119.939 137.404 131.567 137.404C131.565 119.573 103.659 120.66 100.006 120.66Z" fill="#EF9D25"/>
<path d="M112.137 112.908H87.8731V137.404H112.137V112.908Z" fill="#FED2BC"/>
<path d="M100.006 127.298C100.006 127.298 91.6114 127.942 87.8576 128.278C89.9771 131.605 95.5126 133.765 100.006 133.765C104.571 133.765 110.035 131.605 112.154 128.278C108.4 127.942 100.006 127.298 100.006 127.298Z" fill="#FF8F78"/>
<path d="M136.745 137.404H120.882H112.137H87.8731H63.2565C55.9373 137.404 50 143.339 50 150.661V199.884H150V150.661C150.002 143.339 144.067 137.404 136.745 137.404Z" fill="#753714"/>
<path d="M137.213 92.7204C142.693 92.7204 147.135 88.2782 147.135 82.7984C147.135 77.3187 142.693 72.8765 137.213 72.8765C131.733 72.8765 127.291 77.3187 127.291 82.7984C127.291 88.2782 131.733 92.7204 137.213 92.7204Z" fill="#FED2BC"/>
<path d="M137.213 88.7183C140.483 88.7183 143.133 86.0679 143.133 82.7985C143.133 79.5291 140.483 76.8787 137.213 76.8787C133.944 76.8787 131.293 79.5291 131.293 82.7985C131.293 86.0679 133.944 88.7183 137.213 88.7183Z" fill="#FF8F78"/>
<path d="M62.7946 92.7204C68.2743 92.7204 72.7165 88.2782 72.7165 82.7984C72.7165 77.3187 68.2743 72.8765 62.7946 72.8765C57.3148 72.8765 52.8726 77.3187 52.8726 82.7984C52.8726 88.2782 57.3148 92.7204 62.7946 92.7204Z" fill="#FED2BC"/>
<path d="M62.7945 88.7183C66.0639 88.7183 68.7143 86.0679 68.7143 82.7985C68.7143 79.5291 66.0639 76.8787 62.7945 76.8787C59.5251 76.8787 56.8747 79.5291 56.8747 82.7985C56.8747 86.0679 59.5251 88.7183 62.7945 88.7183Z" fill="#FF8F78"/>
<path d="M137.105 53.6827C135.973 34.1473 119.821 18.6432 100.004 18.6432C80.1871 18.6432 64.0348 34.1454 62.9032 53.6827H62.7946V92.9164H62.7984C62.7984 92.9649 62.7946 93.0154 62.7946 93.062C62.7946 113.612 79.4535 130.271 100.004 130.271C120.554 130.271 137.213 113.612 137.213 93.062C137.213 93.0154 137.207 92.9649 137.207 92.9164H137.213V53.6827H137.105Z" fill="#FED2BC"/>
<path d="M86.6717 77.3716C86.6717 79.854 84.659 81.8668 82.1746 81.8668C79.6922 81.8668 77.6795 79.854 77.6795 77.3716C77.6795 74.8892 79.6922 72.8765 82.1746 72.8765C84.6571 72.8765 86.6717 74.8892 86.6717 77.3716Z" fill="#1E1E1D"/>
<path d="M121.323 77.3716C121.323 79.854 119.31 81.8668 116.828 81.8668C114.345 81.8668 112.331 79.854 112.331 77.3716C112.331 74.8892 114.345 72.8765 116.828 72.8765C119.31 72.8765 121.323 74.8892 121.323 77.3716Z" fill="#1E1E1D"/>
<path d="M117.884 13.5075C114.58 13.5075 110.209 13.5075 107.628 13.5075V13.4688H94.2277C94.2277 13.4688 93.6571 13.4688 92.7429 13.4688C90.3207 13.4688 85.4179 13.4688 81.7962 13.4688C63.4758 13.4688 55.7762 25.1162 55.7762 37.8719C55.7762 44.4924 55.7762 43.2618 55.7762 59.8431C55.7762 60.4545 55.7762 61.0387 55.7762 61.7044V73.5926C55.7762 73.5926 59.8036 73.5926 62.4646 73.5926C64.5317 73.5926 65.6594 71.935 65.6594 69.7651C65.6594 67.3351 65.6594 61.7044 65.6594 61.7044C65.671 61.7044 65.6865 61.7044 65.6982 61.7044C65.6982 46.5109 74.0694 37.8719 83.3722 37.8719H92.741H94.2258H105.452V37.9107H116.304C125.607 37.9107 133.978 46.5497 133.978 61.7432C133.989 61.7432 134.005 61.7432 134.017 61.7432C134.017 61.7432 134.017 67.3758 134.017 69.8058C134.017 71.9758 135.144 73.6333 137.211 73.6333C139.872 73.6333 143.9 73.6333 143.9 73.6333V61.7432C143.9 61.0794 143.9 60.4953 143.9 59.8839C143.9 43.3007 143.9 44.5312 143.9 37.9107C143.904 25.155 136.206 13.5075 117.884 13.5075Z" fill="#1E1E1D"/>
<path d="M86.6717 71.0423C86.3204 71.0423 85.973 70.8967 85.7284 70.6075C85.1733 69.9593 83.9564 69.5245 82.557 69.4779C80.9518 69.408 79.3195 69.901 78.5645 70.6696C78.0851 71.1587 77.299 71.1665 76.8099 70.6871C76.3208 70.2077 76.315 69.4236 76.7944 68.9345C78.0463 67.6593 80.2977 66.9217 82.6424 66.9994C84.7793 67.0712 86.5902 67.799 87.615 68.9965C88.0595 69.5167 87.9993 70.2989 87.4791 70.7434C87.2443 70.9472 86.957 71.0423 86.6717 71.0423Z" fill="#1E1E1D"/>
<path d="M112.329 71.0422C112.045 71.0422 111.758 70.9451 111.525 70.7452C111.003 70.3007 110.943 69.5166 111.387 68.9984C112.41 67.8008 114.223 67.073 116.36 67.0012C118.726 66.9255 120.96 67.663 122.21 68.9363C122.689 69.4254 122.684 70.2095 122.194 70.6889C121.705 71.1702 120.921 71.1625 120.44 70.6714C119.685 69.9048 118.076 69.3943 116.445 69.4797C115.046 69.5263 113.831 69.9611 113.276 70.6093C113.027 70.8966 112.68 71.0422 112.329 71.0422Z" fill="#1E1E1D"/>
<path d="M100.006 119.051C93.3058 119.051 87.8751 113.62 87.8751 106.92H112.137C112.137 113.62 106.704 119.051 100.006 119.051Z" fill="#D99056"/>
<path d="M100.006 137.404H68.4445L100.006 155.389L131.565 137.404H100.006Z" fill="#EF9D25"/>
<path d="M100.004 149.537C106.704 149.537 112.137 144.104 112.137 137.404H87.8731C87.8731 144.104 93.3038 149.537 100.004 149.537Z" fill="#FED2BC"/>
<path d="M106.085 181.492C105.262 181.492 104.596 180.825 104.596 180.004V150.08C104.596 149.259 105.262 148.592 106.085 148.592C106.906 148.592 107.573 149.259 107.573 150.08V180.004C107.573 180.825 106.906 181.492 106.085 181.492Z" fill="#EF9D25"/>
<path d="M93.9909 181.492C93.1699 181.492 92.5023 180.825 92.5023 180.004V150.08C92.5023 149.259 93.168 148.592 93.9909 148.592C94.8139 148.592 95.4796 149.259 95.4796 150.08V180.004C95.4796 180.825 94.8139 181.492 93.9909 181.492Z" fill="#EF9D25"/>
<path d="M99.8408 36.525H82.1746V37.9244C86.4291 37.9244 92.5798 46.2432 99.8408 46.2432C107.102 46.2432 113.253 37.9244 117.507 37.9244V36.525H99.8408Z" fill="#1E1E1D"/>
<path d="M99.8408 2C89.8917 2 70.8222 14.0919 65.1236 18.1038H99.8408H134.558C128.858 14.0939 109.79 2 99.8408 2Z" fill="#1E1E1D"/>
<path d="M99.9884 96.183C97.4361 96.183 95.2312 94.7739 94.0434 92.7068C94.1773 95.886 96.7762 98.4267 99.9884 98.4267C103.197 98.4267 105.798 95.8841 105.93 92.7068C104.744 94.7739 102.541 96.183 99.9884 96.183Z" fill="#FF8F78"/>
</svg>
