<svg width="200" height="200" viewBox="0 0 200 200" fill="none" xmlns="http://www.w3.org/2000/svg">
<rect width="200" height="200" fill="#D9D9D9"/>
<path d="M110.9 121.669H89.1084V143.67H110.9V121.669Z" fill="#FED2BC"/>
<path d="M100.019 134.565C100.019 134.565 92.4798 135.146 89.1084 135.446C91.012 138.433 95.9836 140.375 100.019 140.375C104.119 140.375 109.026 138.433 110.93 135.446C107.559 135.146 100.019 134.565 100.019 134.565Z" fill="#FF8F78"/>
<path d="M133.004 143.67H118.757H110.902H89.1084H67.001C60.4256 143.67 55.0949 149.001 55.0949 155.576V199.787H144.909V155.576C144.91 149.001 139.58 143.67 133.004 143.67Z" fill="#E9E7DE"/>
<path d="M145.395 117.213C145.395 117.213 145.395 104.403 145.395 87.136C145.395 43.4111 120.608 31.1581 100.002 31.1581C79.3953 31.1581 54.6086 43.4111 54.6086 87.136C54.6086 104.403 54.6086 117.213 54.6086 117.213C54.6086 125.429 50.4301 131.278 45 132.948C53.2157 132.948 100 132.948 100 132.948C100 132.948 146.784 132.948 155 132.948C149.573 131.278 145.395 125.429 145.395 117.213Z" fill="#1E1E1D"/>
<path d="M142.336 94.6266C142.336 99.5476 138.345 103.538 133.424 103.538C128.503 103.538 124.513 99.5476 124.513 94.6266C124.513 89.7055 128.503 85.7153 133.424 85.7153C138.345 85.7153 142.336 89.7055 142.336 94.6266Z" fill="#FED2BC"/>
<path d="M138.994 94.6267C138.994 97.7034 136.499 100.196 133.424 100.196C130.348 100.196 127.855 97.7017 127.855 94.6267C127.855 91.5499 130.349 89.0571 133.424 89.0571C136.501 89.0571 138.994 91.5517 138.994 94.6267Z" fill="#FF8F78"/>
<path d="M75.4974 94.6266C75.4974 99.5476 71.5072 103.538 66.5861 103.538C61.6651 103.538 57.6749 99.5476 57.6749 94.6266C57.6749 89.7055 61.6651 85.7153 66.5861 85.7153C71.5072 85.7153 75.4974 89.7055 75.4974 94.6266Z" fill="#FED2BC"/>
<path d="M72.1557 94.6267C72.1557 97.7034 69.6612 100.196 66.5861 100.196C63.5094 100.196 61.0166 97.7017 61.0166 94.6267C61.0166 91.5499 63.5111 89.0571 66.5861 89.0571C69.6612 89.0571 72.1557 91.5517 72.1557 94.6267Z" fill="#FF8F78"/>
<path d="M133.327 68.4768C132.31 50.9314 117.803 37.0067 100.005 37.0067C82.2071 37.0067 67.7001 50.9314 66.6838 68.4768H66.5862V103.716H66.5914C66.5914 103.759 66.5862 103.803 66.5862 103.847C66.5862 122.304 81.5499 137.266 100.005 137.266C118.462 137.266 133.424 122.304 133.424 103.847C133.424 103.803 133.421 103.759 133.421 103.716H133.424V68.4768H133.327Z" fill="#FED2BC"/>
<path d="M88.0294 89.7525C88.0294 91.9821 86.2217 93.7898 83.9921 93.7898C81.7625 93.7898 79.9548 91.9821 79.9548 89.7525C79.9548 87.523 81.7625 85.7153 83.9921 85.7153C86.2217 85.7153 88.0294 87.523 88.0294 89.7525Z" fill="#1E1E1D"/>
<path d="M119.151 89.7525C119.151 91.9821 117.343 93.7898 115.114 93.7898C112.884 93.7898 111.076 91.9821 111.076 89.7525C111.076 87.523 112.884 85.7153 115.114 85.7153C117.343 85.7153 119.151 87.523 119.151 89.7525Z" fill="#1E1E1D"/>
<path d="M88.0311 82.2341C87.7156 82.2341 87.4036 82.1016 87.1839 81.8436C86.6854 81.2596 85.5941 80.8709 84.3373 80.8273C82.8712 80.7785 81.4278 81.2074 80.7497 81.8994C80.3174 82.3387 79.6132 82.3439 79.1739 81.9134C78.7346 81.4828 78.7294 80.7768 79.1599 80.3375C80.2826 79.1939 82.289 78.5368 84.414 78.5995C86.3315 78.6658 87.9597 79.3195 88.8783 80.3933C89.2775 80.8622 89.2235 81.5647 88.7563 81.9639C88.5436 82.1452 88.2874 82.2341 88.0311 82.2341Z" fill="#1E1E1D"/>
<path d="M111.075 82.2342C110.82 82.2342 110.56 82.147 110.351 81.9675C109.882 81.5683 109.828 80.864 110.227 80.3968C111.146 79.3213 112.774 78.6676 114.692 78.6013C116.815 78.5403 118.823 79.1957 119.944 80.341C120.376 80.7803 120.368 81.4846 119.928 81.9152C119.491 82.3475 118.785 82.3423 118.354 81.8995C117.676 81.2092 116.226 80.7769 114.767 80.8274C113.51 80.871 112.419 81.2597 111.92 81.8419C111.702 82.1017 111.388 82.2342 111.075 82.2342Z" fill="#1E1E1D"/>
<path d="M100.003 106.62C97.7112 106.62 95.7309 105.354 94.664 103.498C94.7843 106.351 97.1185 108.635 100.003 108.635C102.885 108.635 105.221 106.351 105.341 103.498C104.274 105.354 102.296 106.62 100.003 106.62Z" fill="#FF8F78"/>
<path d="M100.003 34.2209C68.9517 34.2227 59.2037 75.1602 66.5844 75.1602C89.9643 75.1602 99.9913 62.4452 100.002 50.7483C100.014 62.4452 110.039 75.1602 133.419 75.1602C140.802 75.1602 131.055 34.2244 100.003 34.2209Z" fill="#1E1E1D"/>
<path d="M123.028 29L100.003 40.235L76.9809 29V57.2679L100.003 46.0312L123.028 57.2679V29Z" fill="#AA3727"/>
<path d="M100.003 154.565C106.023 154.565 110.9 149.688 110.9 143.668H89.1084C89.1084 149.688 93.9859 154.565 100.003 154.565Z" fill="#FED2BC"/>
<path d="M129.455 166.924H70.6932V199.786H129.455V166.924Z" fill="#AA3727"/>
<path d="M80.0925 143.67H70.6932V168.038H80.0925V143.67Z" fill="#AA3727"/>
<path d="M129.455 143.67H120.056V168.038H129.455V143.67Z" fill="#AA3727"/>
<path d="M100.005 194.312C110.311 194.312 118.663 185.957 118.663 175.653H81.3459C81.3459 185.957 89.7011 194.312 100.005 194.312Z" fill="#89271D"/>
<path d="M100.003 126.003C106.021 126.003 110.899 121.125 110.899 115.106H89.1084C89.1084 121.125 93.9859 126.003 100.003 126.003Z" fill="#AA3727"/>
</svg>
