<svg width="200" height="200" viewBox="0 0 200 200" fill="none" xmlns="http://www.w3.org/2000/svg">
<rect width="200" height="200" fill="#D9D9D9"/>
<path d="M113.862 34.8833C123.513 32.8513 145.27 38.4273 140.993 90.1149C140.993 110.781 147.481 143.743 116.475 143.743C94.3337 143.743 67.5094 143.743 67.5094 143.743L63.3083 77.541C63.3083 77.541 77.805 38.7602 75.9584 39.5924C74.1136 40.423 113.862 34.8833 113.862 34.8833Z" fill="#5C3E2F"/>
<path d="M111.176 121.86H89.4997V143.742H111.176V121.86Z" fill="#FED2BC"/>
<path d="M100.336 134.721C100.336 134.721 92.8391 135.299 89.4841 135.597C91.3792 138.569 96.3224 140.5 100.336 140.5C104.414 140.5 109.295 138.569 111.19 135.597C107.837 135.299 100.336 134.721 100.336 134.721Z" fill="#FF8F78"/>
<path d="M133.161 143.743H118.985H111.176H89.4997H67.5112C60.9711 143.743 55.669 149.045 55.669 155.585V199.558H145V155.586C145 149.045 139.701 143.743 133.161 143.743Z" fill="#FED2BC"/>
<path d="M142.441 94.9644C142.441 99.859 138.472 103.828 133.579 103.828C128.683 103.828 124.714 99.859 124.714 94.9644C124.714 90.0698 128.683 86.101 133.579 86.101C138.472 86.0993 142.441 90.068 142.441 94.9644Z" fill="#FED2BC"/>
<path d="M139.325 94.9645C139.325 98.1392 136.752 100.712 133.577 100.712C130.401 100.712 127.828 98.1392 127.828 94.9645C127.828 91.7898 130.401 89.2168 133.577 89.2168C136.75 89.2151 139.325 91.7898 139.325 94.9645Z" fill="#FF8F78"/>
<path d="M67.0985 103.828C71.9936 103.828 75.9619 99.8595 75.9619 94.9644C75.9619 90.0693 71.9936 86.101 67.0985 86.101C62.2034 86.101 58.2351 90.0693 58.2351 94.9644C58.2351 99.8595 62.2034 103.828 67.0985 103.828Z" fill="#FF8F78"/>
<path d="M133.48 68.9551C132.471 51.504 118.042 37.6541 100.338 37.6541C82.6355 37.6541 68.2064 51.504 67.1956 68.9551H67.0985V104.003H67.1037C67.1037 104.046 67.0985 104.09 67.0985 104.133C67.0985 122.489 81.9801 137.372 100.338 137.372C118.696 137.372 133.579 122.491 133.579 104.133C133.579 104.09 133.576 104.046 133.576 104.003H133.579V68.9551H133.48Z" fill="#FED2BC"/>
<path d="M88.4265 90.1166C88.4265 92.3342 86.6285 94.1339 84.4109 94.1339C82.1933 94.1339 80.3936 92.3342 80.3936 90.1166C80.3936 87.899 82.1933 86.101 84.4109 86.101C86.6285 86.0993 88.4265 87.8973 88.4265 90.1166Z" fill="#1E1E1D"/>
<path d="M119.383 90.1166C119.383 92.3342 117.584 94.1339 115.367 94.1339C113.149 94.1339 111.351 92.3342 111.351 90.1166C111.351 87.899 113.149 86.101 115.367 86.101C117.584 86.101 119.383 87.8973 119.383 90.1166Z" fill="#1E1E1D"/>
<path d="M100.336 125.62C106.323 125.62 111.176 120.769 111.176 114.782H89.4997C89.4997 120.767 94.3545 125.62 100.336 125.62Z" fill="#AA3727"/>
<path d="M88.4282 82.6385C88.1144 82.6385 87.804 82.5068 87.5839 82.2502C87.0897 81.6693 86.006 81.2827 84.7577 81.2393C83.3065 81.189 81.8622 81.6173 81.1842 82.3056C80.7542 82.7408 80.052 82.7478 79.6168 82.3195C79.1799 81.8913 79.1747 81.189 79.603 80.7521C80.7213 79.613 82.7204 78.9385 84.834 79.0235C86.7412 79.0894 88.3571 79.7413 89.2691 80.8093C89.6662 81.2757 89.6107 81.9745 89.146 82.3715C88.938 82.5501 88.6814 82.6385 88.4282 82.6385Z" fill="#1E1E1D"/>
<path d="M111.35 82.6385C111.095 82.6385 110.838 82.5518 110.63 82.3733C110.164 81.9762 110.11 81.2757 110.507 80.8111C111.419 79.743 113.035 79.0911 114.942 79.0252C117.038 78.9351 119.055 79.613 120.175 80.7539C120.603 81.1908 120.596 81.893 120.159 82.3212C119.726 82.7495 119.024 82.7443 118.594 82.3074C117.917 81.619 116.503 81.1925 115.02 81.2411C113.772 81.2844 112.69 81.6711 112.196 82.2519C111.972 82.5068 111.662 82.6385 111.35 82.6385Z" fill="#1E1E1D"/>
<path d="M100.336 154.581C106.323 154.581 111.176 149.73 111.176 143.743H89.4997C89.4997 149.73 94.3528 154.581 100.336 154.581Z" fill="#FED2BC"/>
<path d="M113.862 51.7796C113.862 57.4579 118.946 87.0407 133.577 90.1148C133.577 86.0992 133.577 55.5177 133.577 55.5177C133.577 47.7623 123.696 37.6522 113.862 37.6522C113.862 40.7003 113.862 51.7796 113.862 51.7796Z" fill="#5C3E2F"/>
<path d="M129.562 166.872H123.792L100.293 177.259L76.8843 166.872H71.1141V199.558H129.562V166.872Z" fill="#35AD60"/>
<path d="M129.562 143.743H123.792V167.98H129.562V143.743Z" fill="#35AD60"/>
<path d="M76.8826 143.743H71.1141V167.98H76.8826V143.743Z" fill="#35AD60"/>
<path d="M51.5858 54.6439C43.3674 74.2173 42.2595 100.138 51.5858 125.922C56.6625 137.372 57.0336 150.208 50.3843 159.718C45.0007 169.318 51.5858 180.959 67.0968 180.954C65.5935 176.859 66.2281 166.284 71.7348 163.937C84.085 157.041 82.1465 142.912 75.1297 131.28C67.0968 119.646 66.3564 106.567 67.0968 100.138C74.528 98.2327 78.5453 89.1751 78.5453 83.6355C78.5453 75.0478 84.4109 62.5832 96.4109 62.5832C108.64 62.5832 113.454 57.3556 113.827 51.7935L113.862 51.7813V51.0878C113.862 51.0878 113.862 40.4039 113.862 37.654V34.8833C103.941 27.6809 63.8666 17.7114 51.5858 54.6439Z" fill="#5C3E2F"/>
<path d="M140.043 103.856C140.043 105.182 138.966 106.259 137.642 106.259C136.313 106.259 135.24 105.182 135.24 103.856C135.24 102.531 136.313 101.456 137.642 101.456C138.966 101.456 140.043 102.531 140.043 103.856Z" fill="white"/>
<path d="M141.151 110.78C141.151 112.719 139.584 114.29 137.643 114.29C135.703 114.29 134.132 112.719 134.132 110.78C134.132 108.844 135.703 107.273 137.643 107.273C139.582 107.273 141.151 108.844 141.151 110.78Z" fill="white"/>
<path d="M115.572 146.061C114.347 146.061 113.356 145.069 113.356 143.845C113.356 142.621 114.347 141.579 115.572 141.579C116.796 141.579 117.787 142.518 117.787 143.744V143.847C117.789 145.069 116.796 146.061 115.572 146.061Z" fill="white"/>
<path d="M98.221 162.707C98.11 162.707 97.9973 162.699 97.8829 162.681L97.6402 162.643C96.4819 162.451 95.6844 161.391 95.7988 160.24C95.1833 161.23 93.8898 161.577 92.8547 161.012L92.6449 160.895C91.6185 160.322 91.2267 159.051 91.7295 158.005C90.8331 158.725 89.5223 158.643 88.7247 157.792L88.5635 157.619C87.7781 156.765 87.7885 155.463 88.5566 154.622C87.5232 155.066 86.2973 154.657 85.7443 153.646L85.6402 153.456C85.0906 152.448 85.4027 151.203 86.3268 150.567C85.2276 150.779 84.1283 150.128 83.7971 149.036L83.7295 148.812C83.3828 147.639 84.052 146.406 85.2241 146.057C86.3962 145.71 87.6307 146.38 87.9792 147.552L88.0364 147.743C88.326 148.689 87.9497 149.679 87.1747 150.213C88.0936 150.036 89.0559 150.465 89.5275 151.328L89.6315 151.519C90.0979 152.372 89.9454 153.395 89.3264 154.075C90.1638 153.717 91.1712 153.908 91.8231 154.614L91.9583 154.759C92.5999 155.444 92.7212 156.429 92.3415 157.228C93.0247 156.68 93.9991 156.571 94.8105 157.024L94.9822 157.117C95.7849 157.556 96.208 158.42 96.1248 159.276C96.586 158.539 97.4616 158.116 98.3684 158.265L98.5539 158.295C99.4763 158.435 100.177 159.125 100.378 159.982C100.574 159.118 101.279 158.423 102.207 158.283L102.389 158.253C103.287 158.102 104.161 158.52 104.624 159.25C104.534 158.385 104.962 157.511 105.777 157.072C106.672 156.563 107.828 156.72 108.53 157.417C107.988 156.583 108.062 155.458 108.771 154.699L108.907 154.551C109.553 153.847 110.552 153.657 111.391 154.007C110.767 153.326 110.616 152.294 111.088 151.441L111.174 151.278C111.641 150.406 112.605 149.976 113.527 150.14C112.742 149.603 112.366 148.596 112.667 147.642C113.011 146.466 114.268 145.712 115.441 146.057C116.617 146.401 117.314 147.552 116.971 148.726L116.894 148.982C116.553 150.059 115.471 150.69 114.382 150.492C115.305 151.122 115.624 152.356 115.086 153.364L114.966 153.584C114.417 154.584 113.208 154.988 112.173 154.557C112.943 155.396 112.955 156.701 112.17 157.554L112.01 157.726C111.173 158.622 109.767 158.664 108.877 157.83C108.856 157.811 108.837 157.792 108.816 157.771C108.837 157.802 108.855 157.834 108.874 157.865C109.477 158.929 109.179 160.24 108.114 160.843L107.882 160.973C106.854 161.528 105.576 161.183 104.959 160.211C105.078 161.367 104.279 162.432 103.119 162.626L102.871 162.666C101.704 162.837 100.638 162.092 100.38 160.975C100.152 161.995 99.2474 162.707 98.221 162.707Z" fill="white"/>
<path d="M85.1044 146.01C83.8804 146.01 82.8886 145.069 82.8886 143.845V143.743C82.8886 142.518 83.8804 141.527 85.1044 141.527C86.3285 141.527 87.3203 142.518 87.3203 143.743C87.3203 144.967 86.3285 146.01 85.1044 146.01Z" fill="white"/>
<path d="M100.338 106.808C98.058 106.808 96.0901 105.549 95.0272 103.703C95.1469 106.541 97.4685 108.813 100.338 108.813C103.204 108.813 105.527 106.541 105.647 103.703C104.588 105.549 102.62 106.808 100.338 106.808Z" fill="#FF8F78"/>
</svg>
